<svg height="480pt" viewBox="0 0 480 480.00002" width="480pt" xmlns="http://www.w3.org/2000/svg"><path d="m392 376c-53 .042969-95.957031 43-96 96h176v-52.960938c-17.742188-26.875-47.796875-43.046874-80-43.039062zm0 0" fill="#78b9eb"/><path d="m320.800781 88h16.398438c3.34375.085938 6.378906-1.929688 7.601562-5.039062 2.617188-7.972657 10.949219-12.570313 19.089844-10.527344 8.140625 2.039062 13.320313 10.019531 11.871094 18.285156-1.617188 7.863281-8.617188 13.449219-16.640625 13.28125h-7.121094c-4.417969 0-8 3.582031-8 8v40c0 4.417969 3.582031 8 8 8h16c4.417969 0 8-3.582031 8-8v-18.71875c21.917969-7.75 35.132812-30.089844 31.367188-53.027344-3.765626-22.941406-23.425782-39.886718-46.667969-40.222656-23.246094-.339844-43.390625 16.027344-47.820313 38.847656-.363281 2.300782.308594 4.648438 1.835938 6.40625 1.527344 1.757813 3.753906 2.753906 6.085937 2.714844zm0 0" fill="#78b9eb"/><path d="m376 200c0 8.835938-7.164062 16-16 16s-16-7.164062-16-16 7.164062-16 16-16 16 7.164062 16 16zm0 0" fill="#78b9eb"/><path d="m46 256h126.238281c.457031 7.953125-1.738281 15.828125-6.238281 22.398438-8.640625 11.523437-23.039062 12.5625-22.480469 14.960937.878907 3.839844 41.839844 11.039063 60-14.960937 4.519531-6.621094 7.070313-14.386719 7.359375-22.398438h15.121094c16.539062-.074219 29.925781-13.460938 30-30v-164c-.003906-16.566406-13.433594-29.996094-30-30h-180c-16.566406.003906-29.996094 13.433594-30 30v164c.003906 16.566406 13.433594 29.996094 30 30zm90-192h.320312c44.183594.089844 79.929688 35.976562 79.839844 80.160156s-35.976562 79.929688-80.160156 79.839844h-.320312c-44.183594-.089844-79.929688-35.976562-79.839844-80.160156s35.976562-79.929688 80.160156-79.839844zm0 0" fill="#78b9eb"/><path d="m88 376c-32.203125-.007812-62.257812 16.164062-80 43.039062v52.960938h176c-.042969-53-43-95.957031-96-96zm0 0" fill="#78b9eb"/><g fill="#1a6fb0"><path d="m136 104c8.835938 0 16 7.164062 16 16h16c-.054688-14.546875-9.914062-27.226562-24-30.863281v-9.136719h-16v9.136719c-15.585938 4.011719-25.753906 18.992187-23.71875 34.957031 2.03125 15.96875 15.625 27.925781 31.71875 27.90625 8.835938 0 16 7.164062 16 16s-7.164062 16-16 16-16-7.164062-16-16h-16c.054688 14.546875 9.914062 27.226562 24 30.863281v9.136719h16v-9.136719c15.585938-4.011719 25.753906-18.992187 23.71875-34.957031-2.03125-15.96875-15.625-27.925781-31.71875-27.90625-8.835938 0-16-7.164062-16-16s7.164062-16 16-16zm0 0"/><path d="m136 56c-48.601562 0-88 39.398438-88 88s39.398438 88 88 88 88-39.398438 88-88c-.058594-48.578125-39.421875-87.941406-88-88zm0 160c-39.765625 0-72-32.234375-72-72s32.234375-72 72-72 72 32.234375 72 72c-.042969 39.746094-32.253906 71.957031-72 72zm0 0"/><path d="m372 33.257812c-14.734375-3.191406-30.136719-.320312-42.730469 7.972657-12.59375 8.289062-21.320312 21.300781-24.214843 36.097656-.878907 4.542969.328124 9.242187 3.289062 12.800781 3.066406 3.71875 7.636719 5.871094 12.457031 5.871094h16.382813c6.800781.121094 12.917968-4.113281 15.199218-10.519531 1.046876-2.617188 3.355469-4.523438 6.121094-5.058594 2.769532-.535156 5.621094.371094 7.566406 2.410156 1.542969 1.816407 2.199219 4.222657 1.785157 6.566407-.996094 4.007812-4.671875 6.765624-8.800781 6.601562h-7.054688c-8.835938 0-16 7.164062-16 16v40c0 8.835938 7.164062 16 16 16h16c8.835938 0 16-7.164062 16-16v-13.390625c21.679688-10.242187 34.433594-33.148437 31.722656-56.972656-2.714844-23.824219-20.292968-43.277344-43.722656-48.378907zm1.359375 92.460938c-3.191406 1.132812-5.324219 4.152344-5.328125 7.539062v18.742188h-16.03125v-40h7.105469c11.949219.148438 22.292969-8.269531 24.574219-20 2.039062-12.320312-5.664063-24.15625-17.757813-27.277344-12.089844-3.121094-24.5625 3.507813-28.738281 15.277344l-16.457032.375c2.078126-10.589844 8.339844-19.898438 17.363282-25.820312 9.023437-5.917969 20.054687-7.953126 30.597656-5.644532 17.453125 3.851563 30.234375 18.8125 31.3125 36.648438 1.074219 17.839844-9.8125 34.230468-26.671875 40.152344zm0 0"/><path d="m360 176c-13.253906 0-24 10.746094-24 24s10.746094 24 24 24 24-10.746094 24-24-10.746094-24-24-24zm0 32c-4.417969 0-8-3.582031-8-8s3.582031-8 8-8 8 3.582031 8 8-3.582031 8-8 8zm0 0"/><path d="m120.71875 373.351562c19.734375-14.207031 28.046875-39.527343 20.570312-62.664062-7.476562-23.140625-29.03125-38.808594-53.347656-38.785156-24.316406.027344-45.839844 15.746094-53.265625 38.902344-7.425781 23.152343.941407 48.457031 20.707031 62.621093-22.144531 7.253907-41.191406 21.773438-54.054687 41.207031-.863281 1.308594-1.328125 2.839844-1.328125 4.40625v52.960938c0 4.417969 3.582031 8 8 8h176c4.417969 0 8-3.582031 8-8-.070312-44.789062-28.777344-84.519531-71.28125-98.648438zm-72.71875-45.351562c0-22.089844 17.910156-40 40-40s40 17.910156 40 40-17.910156 40-40 40c-22.082031-.027344-39.972656-17.917969-40-40zm-32 136v-42.496094c21.175781-30.246094 58.992188-44.046875 94.671875-34.546875 35.683594 9.496094 61.632813 40.269531 64.96875 77.042969zm0 0"/><path d="m424.617188 373.425781c19.765624-14.164062 28.132812-39.46875 20.707031-62.621093-7.425781-23.15625-28.949219-38.875-53.265625-38.902344-24.316406-.023438-45.871094 15.644531-53.347656 38.785156-7.476563 23.136719.835937 48.457031 20.570312 62.664062-42.503906 14.128907-71.210938 53.859376-71.28125 98.648438 0 4.417969 3.582031 8 8 8h176c4.417969 0 8-3.582031 8-8v-52.960938c0-1.566406-.464844-3.097656-1.328125-4.40625-12.863281-19.433593-31.910156-33.953124-54.054687-41.207031zm-72.617188-45.425781c0-22.089844 17.910156-40 40-40s40 17.910156 40 40-17.910156 40-40 40c-22.082031-.027344-39.972656-17.917969-40-40zm112 136h-159.640625c3.335937-36.773438 29.285156-67.546875 64.96875-77.042969 35.679687-9.5 73.496094 4.300781 94.671875 34.546875zm0 0"/><path d="m440 0h-192c-15.902344-.015625-30.292969 9.414062-36.625 24h-165.375c-20.976562.027344-37.972656 17.023438-38 38v164c.027344 20.976562 17.023438 37.972656 38 38h117.601562c-.574218 3.464844-1.945312 6.753906-4 9.601562-3.910156 4.539063-9.015624 7.890626-14.738281 9.664063-3.550781 1.390625-10.953125 4.285156-9.144531 11.910156 1.410156 5.945313 7.953125 7.921875 13.496094 8.976563 4.175781.761718 8.414062 1.136718 12.65625 1.121094 18.746094.898437 36.742187-7.429688 48.191406-22.296876 3.921875-5.707031 6.609375-12.171874 7.890625-18.976562h8.046875c8.359375-.03125 16.46875-2.84375 23.046875-8h7.945313c1.300781 7.382812 4.179687 14.398438 8.441406 20.566406 12.070312 15.765625 31.101562 24.609375 50.933594 23.664063 4.523437.019531 9.039062-.386719 13.488281-1.214844 5.753906-1.105469 12.535156-3.152344 13.90625-9.070313 1.941406-7.746093-5.730469-10.761718-9.410157-12.210937-6.1875-1.929687-11.707031-5.566406-15.917968-10.496094-2.382813-3.332031-3.9375-7.183593-4.539063-11.238281h126.105469c22.082031-.027344 39.972656-17.917969 40-40v-176c-.027344-22.082031-17.917969-39.9726562-40-40zm-214 248h-15.097656c-4.246094-.007812-7.757813 3.304688-8 7.542969-.265625 6.53125-2.335938 12.859375-5.980469 18.28125-7.21875 9.285156-18.207031 14.859375-29.960937 15.199219 2.007812-1.734376 3.824218-3.679688 5.421874-5.800782 5.609376-7.964844 8.367188-17.585937 7.832032-27.3125-.058594-4.371094-3.625-7.886718-8-7.886718h-126.214844c-12.152344-.011719-22-9.871094-22-22.023438v-164c.007812-12.148438 9.851562-21.992188 22-22h180c12.148438.007812 21.992188 9.851562 22 22v164c-.011719 12.144531-9.855469 21.988281-22 22zm238-32c0 13.253906-10.746094 24-24 24h-134.640625c-4.363281 0-7.921875 3.492188-8 7.855469-.570313 10.300781 2.332031 20.492187 8.242187 28.945312 2.054688 2.734375 4.457032 5.191407 7.140626 7.3125-13.363282.015625-25.984376-6.148437-34.191407-16.695312-3.960937-5.890625-6.203125-12.765625-6.480469-19.859375-.234374-4.242188-3.75-7.558594-8-7.550782h-2.832031c1.808594-4.449218 2.746094-9.203124 2.761719-14.007812v-164c-.074219-19.4375-14.828125-35.671875-34.167969-37.601562 4.535157-5.320313 11.175781-8.386719 18.167969-8.398438h192c13.253906 0 24 10.746094 24 24zm0 0"/></g></svg>